<svg width="27" height="23" viewBox="0 0 27 23" fill="none" xmlns="http://www.w3.org/2000/svg">
    <path d="M25.2334 19H1.76676C0.884641 19 0.166748 19.673 0.166748 20.5C0.166748 21.878 1.36247 23 2.83341 23H24.1667C25.6377 23 26.8334 21.878 26.8334 20.5C26.8334 19.673 26.1155 19 25.2334 19Z" fill="#393939"/>
    <path d="M0.727413 9.66659H26.2574C26.3907 9.66659 26.5358 9.60228 26.635 9.51518C26.7321 9.42909 26.7929 9.31191 26.8046 9.18542C26.9774 7.51582 26.3705 5.88247 25.0478 4.45963C22.6797 1.91474 18.2552 0.333252 13.501 0.333252C8.7393 0.333252 4.31042 1.91783 1.9456 4.46895C0.622876 5.89493 0.0191457 7.5303 0.19728 9.20203C0.225042 9.4654 0.454377 9.66659 0.727413 9.66659ZM20.5901 4.63282C20.7981 4.43062 21.1362 4.43062 21.3443 4.63282L22.4109 5.66984C22.6189 5.8731 22.6189 6.20079 22.4109 6.40304C22.3074 6.50467 22.1709 6.55546 22.0344 6.55546C21.8979 6.55546 21.7613 6.50467 21.6568 6.40304L20.5901 5.36601C20.3821 5.16381 20.3821 4.83608 20.5901 4.63282ZM16.3234 6.70692L17.39 5.66989C17.598 5.46769 17.9362 5.46769 18.1442 5.66989C18.3522 5.87315 18.3522 6.20084 18.1442 6.40309L17.0775 7.44011C16.974 7.54174 16.8375 7.59253 16.701 7.59253C16.5645 7.59253 16.4279 7.54174 16.3234 7.44011C16.1154 7.23786 16.1154 6.91018 16.3234 6.70692ZM13.1233 2.55876C13.3313 2.35656 13.6695 2.35656 13.8775 2.55876L14.9442 3.59579C15.1521 3.79905 15.1521 4.12673 14.9442 4.32898C14.8407 4.43062 14.7042 4.48141 14.5676 4.48141C14.4311 4.48141 14.2946 4.43062 14.19 4.32898L13.1233 3.29196C12.9153 3.08971 12.9153 2.76203 13.1233 2.55876ZM8.8566 4.63282L9.92327 3.59579C10.1313 3.39359 10.4694 3.39359 10.6774 3.59579C10.8854 3.79905 10.8854 4.12673 10.6774 4.32898L9.61076 5.36601C9.50726 5.46764 9.37074 5.51843 9.23423 5.51843C9.09771 5.51843 8.96114 5.46764 8.8566 5.36601C8.64862 5.16381 8.64862 4.83608 8.8566 4.63282ZM4.58986 5.66989C4.79784 5.46769 5.13598 5.46769 5.34402 5.66989L6.41069 6.70692C6.61867 6.91018 6.61867 7.23786 6.41069 7.44011C6.30719 7.54174 6.17068 7.59253 6.03416 7.59253C5.89764 7.59253 5.76107 7.54174 5.65653 7.44011L4.58986 6.40309C4.38188 6.20084 4.38188 5.87315 4.58986 5.66989Z" fill="#393939"/>
    <path d="M2.02176 11C1.7327 11 1.5 11.224 1.5 11.5C1.5 11.776 1.7327 12 2.02176 12H10.2454L16.3967 14.947C16.4708 14.983 16.55 15 16.6304 15C16.765 15 16.8986 14.95 16.9987 14.853L19.9768 12H24.9782C25.2662 12 25.5 11.7761 25.5 11.5C25.5 11.224 25.2663 11 24.9782 11H2.02176V11Z" fill="#393939"/>
    <path d="M2.30074 17.6665H24.7005C25.9954 17.6665 27.0226 16.5805 26.8039 15.3285C26.6311 14.3455 25.6434 13.6665 24.581 13.6665H21.3171L17.6648 17.0905C17.3405 17.3946 16.8445 17.4705 16.4339 17.2776L8.72947 13.6666H2.41913C1.35676 13.6666 0.369019 14.3455 0.196202 15.3285C-0.0224503 16.5805 1.00581 17.6665 2.30074 17.6665Z" fill="#393939"/>
    </svg>
    