<svg width="33" height="32" viewBox="0 0 33 32" fill="none" xmlns="http://www.w3.org/2000/svg">
    <path d="M29.7283 19.6776C27.2179 11.5991 20.8979 5.27785 12.8186 2.7663C11.5804 2.38954 10.3157 3.12052 9.95009 4.31216C9.5543 5.52284 10.1996 6.80948 11.3802 7.21002C11.4091 7.22295 11.4387 7.23359 11.4684 7.24351C18.0363 9.30718 23.1893 14.4612 25.2527 21.0303C25.2618 21.0592 25.2733 21.0881 25.2854 21.1163C25.6949 22.3269 27.008 22.9341 28.1668 22.5542C29.4468 22.1676 30.1042 20.792 29.7283 19.6776Z" fill="#393939"/>
    <path d="M9.64434 12.2112C9.35918 12.0795 9.06068 12.017 8.75703 12L7.16675 16.8417C7.58761 17.1481 8.08655 17.3333 8.61532 17.3333C10.0222 17.3333 11.1667 16.1337 11.1667 14.659C11.1667 13.5997 10.5696 12.6386 9.64434 12.2112Z" fill="#393939"/>
    <path d="M14.9029 23.9328C14.4479 23.1521 13.5301 22.6667 12.5061 22.6667C11.0324 22.6667 9.8335 23.6864 9.8335 24.9398C9.8335 25.5658 10.1267 26.1488 10.6583 26.5816C10.6979 26.6139 10.7445 26.6367 10.786 26.6667L15.1093 25.4008C15.2257 24.8933 15.1696 24.3906 14.9029 23.9328Z" fill="#393939"/>
    <path d="M18.5002 18.6667C18.1323 18.6667 17.8335 18.9656 17.8335 19.3334C17.8335 19.7012 18.1323 20.0001 18.5002 20.0001C18.868 20.0001 19.1668 19.7012 19.1668 19.3334C19.1668 18.9656 18.868 18.6667 18.5002 18.6667Z" fill="#393939"/>
    <path d="M24.199 21.5313C22.0175 14.6055 17.4021 10.733 10.8286 8.24263C10.6487 8.18306 10.4722 8.09639 10.2986 8L9.57121 10.1136C9.89204 10.1673 10.2095 10.249 10.5159 10.3837C11.9591 11.0211 12.8918 12.4525 12.8918 14.0309C12.8918 16.228 11.1048 18.0158 8.90858 18.0158C8.23645 18.0158 7.59974 17.8178 7.02693 17.507L3.2104 28.2772C3.11081 28.5651 3.18475 28.8843 3.40024 29.0998C3.61914 29.3188 3.94139 29.3878 4.22254 29.2897L8.91634 27.5701C8.40074 26.8858 8.11194 26.0646 8.11194 25.1885C8.11194 22.9914 9.89894 21.2036 12.0952 21.2036C13.6208 21.2036 14.9893 22.0535 15.6661 23.4218C15.9316 23.9579 16.0242 24.5354 16.033 25.1191L24.5001 22.2029C24.3805 21.9905 24.2784 21.7665 24.199 21.5313ZM14.2518 19.3762C13.9407 19.6874 13.4363 19.6874 13.1251 19.3762C12.814 19.0649 12.814 18.5603 13.1251 18.2491C13.4363 17.9379 13.9406 17.9379 14.2518 18.2491C14.5629 18.5603 14.5629 19.065 14.2518 19.3762ZM14.7185 13.0004C14.4074 12.689 14.4074 12.1847 14.7185 11.8734C15.0297 11.5621 15.5339 11.5621 15.845 11.8734L17.4383 13.4673C17.7495 13.7786 17.7495 14.283 17.4383 14.5943C17.1271 14.9056 16.623 14.9056 16.3118 14.5943L14.7185 13.0004ZM18.4684 21.2036C17.1505 21.2036 16.0784 20.1311 16.0784 18.8127C16.0784 17.4943 17.1505 16.4217 18.4684 16.4217C19.7863 16.4217 20.8584 17.4943 20.8584 18.8127C20.8584 20.1311 19.7863 21.2036 18.4684 21.2036Z" fill="#393939"/>
    </svg>
    